<svg xmlns="http://www.w3.org/2000/svg" xmlns:xlink="http://www.w3.org/1999/xlink" width="200" zoomAndPan="magnify" viewBox="0 0 150 38.999999" height="52" preserveAspectRatio="xMidYMid meet" version="1.0"><defs><g/><clipPath id="2793fb090b"><rect x="0" width="150" y="0" height="39"/></clipPath></defs><g transform="matrix(1, 0, 0, 1, 0, 0)"><g clip-path="url(#2793fb090b)"><g fill="#000000" fill-opacity="1"><g transform="translate(-0.518232, 35.399455)"><g><path d="M 13.171875 -15.34375 L 13.171875 -5.453125 C 13.171875 -3.828125 13.257812 -2.804688 13.4375 -2.390625 C 13.625 -1.984375 13.976562 -1.628906 14.5 -1.328125 C 15.03125 -1.023438 15.742188 -0.875 16.640625 -0.875 L 17.6875 -0.875 L 17.6875 0 L 1.015625 0 L 1.015625 -0.875 L 2.078125 -0.875 C 2.992188 -0.875 3.738281 -1.035156 4.3125 -1.359375 C 4.71875 -1.578125 5.03125 -1.957031 5.25 -2.5 C 5.414062 -2.875 5.5 -3.859375 5.5 -5.453125 L 5.5 -26.453125 C 5.5 -28.078125 5.410156 -29.09375 5.234375 -29.5 C 5.066406 -29.914062 4.71875 -30.273438 4.1875 -30.578125 C 3.664062 -30.878906 2.960938 -31.03125 2.078125 -31.03125 L 1.015625 -31.03125 L 1.015625 -31.90625 L 17.6875 -31.90625 L 17.6875 -31.03125 L 16.640625 -31.03125 C 15.710938 -31.03125 14.96875 -30.867188 14.40625 -30.546875 C 13.988281 -30.328125 13.664062 -29.945312 13.4375 -29.40625 C 13.257812 -29.03125 13.171875 -28.046875 13.171875 -26.453125 L 13.171875 -17.40625 L 24.453125 -17.40625 L 24.453125 -26.453125 C 24.453125 -28.078125 24.363281 -29.09375 24.1875 -29.5 C 24.007812 -29.914062 23.65625 -30.273438 23.125 -30.578125 C 22.59375 -30.878906 21.878906 -31.03125 20.984375 -31.03125 L 19.953125 -31.03125 L 19.953125 -31.90625 L 36.609375 -31.90625 L 36.609375 -31.03125 L 35.578125 -31.03125 C 34.640625 -31.03125 33.894531 -30.867188 33.34375 -30.546875 C 32.9375 -30.328125 32.613281 -29.945312 32.375 -29.40625 C 32.195312 -29.03125 32.109375 -28.046875 32.109375 -26.453125 L 32.109375 -5.453125 C 32.109375 -3.828125 32.195312 -2.804688 32.375 -2.390625 C 32.550781 -1.984375 32.90625 -1.628906 33.4375 -1.328125 C 33.96875 -1.023438 34.679688 -0.875 35.578125 -0.875 L 36.609375 -0.875 L 36.609375 0 L 19.953125 0 L 19.953125 -0.875 L 20.984375 -0.875 C 21.929688 -0.875 22.675781 -1.035156 23.21875 -1.359375 C 23.625 -1.578125 23.945312 -1.957031 24.1875 -2.5 C 24.363281 -2.875 24.453125 -3.859375 24.453125 -5.453125 L 24.453125 -15.34375 Z M 13.171875 -15.34375 "/></g></g></g><g fill="#000000" fill-opacity="1"><g transform="translate(37.921448, 35.399455)"><g><path d="M 13.765625 -3.25 C 11.078125 -0.875 8.671875 0.3125 6.546875 0.3125 C 5.285156 0.3125 4.238281 -0.0976562 3.40625 -0.921875 C 2.582031 -1.753906 2.171875 -2.789062 2.171875 -4.03125 C 2.171875 -5.707031 2.890625 -7.210938 4.328125 -8.546875 C 5.773438 -9.890625 8.921875 -11.675781 13.765625 -13.90625 L 13.765625 -16.125 C 13.765625 -17.78125 13.671875 -18.820312 13.484375 -19.25 C 13.304688 -19.6875 12.96875 -20.066406 12.46875 -20.390625 C 11.96875 -20.710938 11.40625 -20.875 10.78125 -20.875 C 9.757812 -20.875 8.921875 -20.644531 8.265625 -20.1875 C 7.847656 -19.90625 7.640625 -19.578125 7.640625 -19.203125 C 7.640625 -18.867188 7.863281 -18.457031 8.3125 -17.96875 C 8.90625 -17.300781 9.203125 -16.648438 9.203125 -16.015625 C 9.203125 -15.253906 8.914062 -14.601562 8.34375 -14.0625 C 7.769531 -13.519531 7.019531 -13.25 6.09375 -13.25 C 5.101562 -13.25 4.273438 -13.546875 3.609375 -14.140625 C 2.941406 -14.734375 2.609375 -15.429688 2.609375 -16.234375 C 2.609375 -17.359375 3.054688 -18.4375 3.953125 -19.46875 C 4.847656 -20.5 6.09375 -21.285156 7.6875 -21.828125 C 9.289062 -22.378906 10.957031 -22.65625 12.6875 -22.65625 C 14.769531 -22.65625 16.414062 -22.210938 17.625 -21.328125 C 18.84375 -20.441406 19.632812 -19.484375 20 -18.453125 C 20.21875 -17.785156 20.328125 -16.269531 20.328125 -13.90625 L 20.328125 -5.359375 C 20.328125 -4.359375 20.363281 -3.726562 20.4375 -3.46875 C 20.519531 -3.207031 20.640625 -3.015625 20.796875 -2.890625 C 20.953125 -2.765625 21.132812 -2.703125 21.34375 -2.703125 C 21.75 -2.703125 22.164062 -2.992188 22.59375 -3.578125 L 23.296875 -3.015625 C 22.515625 -1.847656 21.703125 -1 20.859375 -0.46875 C 20.015625 0.0507812 19.0625 0.3125 18 0.3125 C 16.75 0.3125 15.769531 0.0195312 15.0625 -0.5625 C 14.351562 -1.15625 13.921875 -2.050781 13.765625 -3.25 Z M 13.765625 -4.96875 L 13.765625 -12.328125 C 11.867188 -11.210938 10.457031 -10.019531 9.53125 -8.75 C 8.914062 -7.90625 8.609375 -7.050781 8.609375 -6.1875 C 8.609375 -5.46875 8.867188 -4.832031 9.390625 -4.28125 C 9.773438 -3.851562 10.320312 -3.640625 11.03125 -3.640625 C 11.820312 -3.640625 12.734375 -4.082031 13.765625 -4.96875 Z M 13.765625 -4.96875 "/></g></g></g><g fill="#000000" fill-opacity="1"><g transform="translate(62.975135, 35.399455)"><g><path d="M 10.75 -22 L 10.75 -19.109375 C 11.957031 -20.421875 13.070312 -21.335938 14.09375 -21.859375 C 15.125 -22.390625 16.253906 -22.65625 17.484375 -22.65625 C 18.890625 -22.65625 20.070312 -22.328125 21.03125 -21.671875 C 21.988281 -21.015625 22.726562 -20.007812 23.25 -18.65625 C 24.5 -20.070312 25.703125 -21.09375 26.859375 -21.71875 C 28.015625 -22.34375 29.21875 -22.65625 30.46875 -22.65625 C 31.988281 -22.65625 33.195312 -22.304688 34.09375 -21.609375 C 35 -20.910156 35.628906 -20.023438 35.984375 -18.953125 C 36.335938 -17.878906 36.515625 -16.164062 36.515625 -13.8125 L 36.515625 -4.796875 C 36.515625 -3.109375 36.664062 -2.054688 36.96875 -1.640625 C 37.28125 -1.234375 37.921875 -0.96875 38.890625 -0.84375 L 38.890625 0 L 27.53125 0 L 27.53125 -0.84375 C 28.425781 -0.925781 29.082031 -1.269531 29.5 -1.875 C 29.78125 -2.300781 29.921875 -3.273438 29.921875 -4.796875 L 29.921875 -14.265625 C 29.921875 -16.222656 29.84375 -17.46875 29.6875 -18 C 29.53125 -18.53125 29.285156 -18.925781 28.953125 -19.1875 C 28.617188 -19.445312 28.222656 -19.578125 27.765625 -19.578125 C 27.085938 -19.578125 26.40625 -19.328125 25.71875 -18.828125 C 25.03125 -18.335938 24.332031 -17.597656 23.625 -16.609375 L 23.625 -4.796875 C 23.625 -3.210938 23.753906 -2.21875 24.015625 -1.8125 C 24.378906 -1.226562 25.070312 -0.90625 26.09375 -0.84375 L 26.09375 0 L 14.703125 0 L 14.703125 -0.84375 C 15.316406 -0.875 15.800781 -1.023438 16.15625 -1.296875 C 16.507812 -1.578125 16.742188 -1.910156 16.859375 -2.296875 C 16.972656 -2.679688 17.03125 -3.515625 17.03125 -4.796875 L 17.03125 -14.265625 C 17.03125 -16.253906 16.953125 -17.5 16.796875 -18 C 16.640625 -18.5 16.375 -18.890625 16 -19.171875 C 15.632812 -19.453125 15.242188 -19.59375 14.828125 -19.59375 C 14.191406 -19.59375 13.617188 -19.429688 13.109375 -19.109375 C 12.367188 -18.617188 11.582031 -17.785156 10.75 -16.609375 L 10.75 -4.796875 C 10.75 -3.242188 10.898438 -2.21875 11.203125 -1.71875 C 11.515625 -1.226562 12.15625 -0.9375 13.125 -0.84375 L 13.125 0 L 1.78125 0 L 1.78125 -0.84375 C 2.707031 -0.9375 3.367188 -1.234375 3.765625 -1.734375 C 4.035156 -2.085938 4.171875 -3.109375 4.171875 -4.796875 L 4.171875 -17.21875 C 4.171875 -18.882812 4.015625 -19.921875 3.703125 -20.328125 C 3.398438 -20.734375 2.757812 -21 1.78125 -21.125 L 1.78125 -22 Z M 10.75 -22 "/></g></g></g><g fill="#000000" fill-opacity="1"><g transform="translate(104.073193, 35.399455)"><g><path d="M 19.640625 0 L 0.5 0 L 0.5 -0.515625 L 12.59375 -20.5625 L 9.0625 -20.5625 C 7.539062 -20.5625 6.445312 -20.421875 5.78125 -20.140625 C 5.125 -19.867188 4.59375 -19.429688 4.1875 -18.828125 C 3.78125 -18.222656 3.359375 -17.144531 2.921875 -15.59375 L 2.09375 -15.59375 L 2.09375 -22 L 20.609375 -22 L 20.609375 -21.359375 L 8.609375 -1.5 L 10.125 -1.5 C 13.132812 -1.5 15.304688 -1.929688 16.640625 -2.796875 C 17.972656 -3.660156 18.972656 -5.238281 19.640625 -7.53125 L 20.3125 -7.53125 Z M 19.640625 0 "/></g></g></g><g fill="#000000" fill-opacity="1"><g transform="translate(126.42145, 35.399455)"><g><path d="M 13.765625 -3.25 C 11.078125 -0.875 8.671875 0.3125 6.546875 0.3125 C 5.285156 0.3125 4.238281 -0.0976562 3.40625 -0.921875 C 2.582031 -1.753906 2.171875 -2.789062 2.171875 -4.03125 C 2.171875 -5.707031 2.890625 -7.210938 4.328125 -8.546875 C 5.773438 -9.890625 8.921875 -11.675781 13.765625 -13.90625 L 13.765625 -16.125 C 13.765625 -17.78125 13.671875 -18.820312 13.484375 -19.25 C 13.304688 -19.6875 12.96875 -20.066406 12.46875 -20.390625 C 11.96875 -20.710938 11.40625 -20.875 10.78125 -20.875 C 9.757812 -20.875 8.921875 -20.644531 8.265625 -20.1875 C 7.847656 -19.90625 7.640625 -19.578125 7.640625 -19.203125 C 7.640625 -18.867188 7.863281 -18.457031 8.3125 -17.96875 C 8.90625 -17.300781 9.203125 -16.648438 9.203125 -16.015625 C 9.203125 -15.253906 8.914062 -14.601562 8.34375 -14.0625 C 7.769531 -13.519531 7.019531 -13.25 6.09375 -13.25 C 5.101562 -13.25 4.273438 -13.546875 3.609375 -14.140625 C 2.941406 -14.734375 2.609375 -15.429688 2.609375 -16.234375 C 2.609375 -17.359375 3.054688 -18.4375 3.953125 -19.46875 C 4.847656 -20.5 6.09375 -21.285156 7.6875 -21.828125 C 9.289062 -22.378906 10.957031 -22.65625 12.6875 -22.65625 C 14.769531 -22.65625 16.414062 -22.210938 17.625 -21.328125 C 18.84375 -20.441406 19.632812 -19.484375 20 -18.453125 C 20.21875 -17.785156 20.328125 -16.269531 20.328125 -13.90625 L 20.328125 -5.359375 C 20.328125 -4.359375 20.363281 -3.726562 20.4375 -3.46875 C 20.519531 -3.207031 20.640625 -3.015625 20.796875 -2.890625 C 20.953125 -2.765625 21.132812 -2.703125 21.34375 -2.703125 C 21.75 -2.703125 22.164062 -2.992188 22.59375 -3.578125 L 23.296875 -3.015625 C 22.515625 -1.847656 21.703125 -1 20.859375 -0.46875 C 20.015625 0.0507812 19.0625 0.3125 18 0.3125 C 16.75 0.3125 15.769531 0.0195312 15.0625 -0.5625 C 14.351562 -1.15625 13.921875 -2.050781 13.765625 -3.25 Z M 13.765625 -4.96875 L 13.765625 -12.328125 C 11.867188 -11.210938 10.457031 -10.019531 9.53125 -8.75 C 8.914062 -7.90625 8.609375 -7.050781 8.609375 -6.1875 C 8.609375 -5.46875 8.867188 -4.832031 9.390625 -4.28125 C 9.773438 -3.851562 10.320312 -3.640625 11.03125 -3.640625 C 11.820312 -3.640625 12.734375 -4.082031 13.765625 -4.96875 Z M 13.765625 -4.96875 "/></g></g></g></g></g></svg>