<svg xmlns="http://www.w3.org/2000/svg" xmlns:xlink="http://www.w3.org/1999/xlink" width="132" zoomAndPan="magnify" viewBox="0 0 98.88 30.000001" height="40" preserveAspectRatio="xMidYMid meet" version="1.0"><defs><g/><clipPath id="3698e7f812"><path d="M 2 0 L 97.226562 0 L 97.226562 29.03125 L 2 29.03125 Z M 2 0 " clip-rule="nonzero"/></clipPath><clipPath id="7ec5f1c336"><rect x="0" width="96" y="0" height="30"/></clipPath></defs><g clip-path="url(#3698e7f812)"><g transform="matrix(1, 0, 0, 1, 2, 0.000000000000005692)"><g clip-path="url(#7ec5f1c336)"><g fill="#000000" fill-opacity="1"><g transform="translate(1.031838, 26.518794)"><g><path d="M 10.015625 -11.671875 L 10.015625 -4.15625 C 10.015625 -2.914062 10.082031 -2.140625 10.21875 -1.828125 C 10.363281 -1.515625 10.632812 -1.238281 11.03125 -1 C 11.425781 -0.769531 11.96875 -0.65625 12.65625 -0.65625 L 13.453125 -0.65625 L 13.453125 0 L 0.765625 0 L 0.765625 -0.65625 L 1.578125 -0.65625 C 2.273438 -0.65625 2.84375 -0.78125 3.28125 -1.03125 C 3.582031 -1.195312 3.816406 -1.484375 3.984375 -1.890625 C 4.117188 -2.179688 4.1875 -2.9375 4.1875 -4.15625 L 4.1875 -20.109375 C 4.1875 -21.347656 4.117188 -22.125 3.984375 -22.4375 C 3.859375 -22.75 3.59375 -23.019531 3.1875 -23.25 C 2.789062 -23.476562 2.253906 -23.59375 1.578125 -23.59375 L 0.765625 -23.59375 L 0.765625 -24.265625 L 13.453125 -24.265625 L 13.453125 -23.59375 L 12.65625 -23.59375 C 11.945312 -23.59375 11.378906 -23.46875 10.953125 -23.21875 C 10.640625 -23.050781 10.394531 -22.765625 10.21875 -22.359375 C 10.082031 -22.078125 10.015625 -21.328125 10.015625 -20.109375 L 10.015625 -13.234375 L 18.59375 -13.234375 L 18.59375 -20.109375 C 18.59375 -21.347656 18.523438 -22.125 18.390625 -22.4375 C 18.253906 -22.75 17.984375 -23.019531 17.578125 -23.25 C 17.179688 -23.476562 16.640625 -23.59375 15.953125 -23.59375 L 15.171875 -23.59375 L 15.171875 -24.265625 L 27.84375 -24.265625 L 27.84375 -23.59375 L 27.046875 -23.59375 C 26.335938 -23.59375 25.769531 -23.46875 25.34375 -23.21875 C 25.039062 -23.050781 24.800781 -22.765625 24.625 -22.359375 C 24.488281 -22.078125 24.421875 -21.328125 24.421875 -20.109375 L 24.421875 -4.15625 C 24.421875 -2.914062 24.484375 -2.140625 24.609375 -1.828125 C 24.742188 -1.515625 25.015625 -1.238281 25.421875 -1 C 25.828125 -0.769531 26.367188 -0.65625 27.046875 -0.65625 L 27.84375 -0.65625 L 27.84375 0 L 15.171875 0 L 15.171875 -0.65625 L 15.953125 -0.65625 C 16.671875 -0.65625 17.238281 -0.78125 17.65625 -1.03125 C 17.96875 -1.195312 18.210938 -1.484375 18.390625 -1.890625 C 18.523438 -2.179688 18.59375 -2.9375 18.59375 -4.15625 L 18.59375 -11.671875 Z M 10.015625 -11.671875 "/></g></g></g><g fill="#000000" fill-opacity="1"><g transform="translate(31.369731, 26.518794)"><g><path d="M 9.125 -17.234375 C 10.582031 -17.234375 11.9375 -16.851562 13.1875 -16.09375 C 14.4375 -15.34375 15.382812 -14.273438 16.03125 -12.890625 C 16.6875 -11.515625 17.015625 -10.003906 17.015625 -8.359375 C 17.015625 -5.984375 16.410156 -3.992188 15.203125 -2.390625 C 13.753906 -0.460938 11.742188 0.5 9.171875 0.5 C 6.660156 0.5 4.722656 -0.378906 3.359375 -2.140625 C 2.003906 -3.910156 1.328125 -5.957031 1.328125 -8.28125 C 1.328125 -10.675781 2.019531 -12.765625 3.40625 -14.546875 C 4.800781 -16.335938 6.707031 -17.234375 9.125 -17.234375 Z M 9.203125 -15.953125 C 8.585938 -15.953125 8.0625 -15.722656 7.625 -15.265625 C 7.195312 -14.804688 6.910156 -13.898438 6.765625 -12.546875 C 6.628906 -11.191406 6.5625 -9.3125 6.5625 -6.90625 C 6.5625 -5.625 6.644531 -4.429688 6.8125 -3.328125 C 6.945312 -2.484375 7.226562 -1.835938 7.65625 -1.390625 C 8.082031 -0.953125 8.570312 -0.734375 9.125 -0.734375 C 9.65625 -0.734375 10.101562 -0.882812 10.46875 -1.1875 C 10.925781 -1.59375 11.234375 -2.15625 11.390625 -2.875 C 11.628906 -4.007812 11.75 -6.300781 11.75 -9.75 C 11.75 -11.78125 11.632812 -13.171875 11.40625 -13.921875 C 11.1875 -14.679688 10.851562 -15.234375 10.40625 -15.578125 C 10.101562 -15.828125 9.703125 -15.953125 9.203125 -15.953125 Z M 9.203125 -15.953125 "/></g></g></g><g fill="#000000" fill-opacity="1"><g transform="translate(51.525908, 26.518794)"><g><path d="M 7.875 -22.84375 L 7.875 -16.734375 L 11.84375 -16.734375 L 11.84375 -14.953125 L 7.875 -14.953125 L 7.875 -4.640625 C 7.875 -3.671875 7.914062 -3.046875 8 -2.765625 C 8.09375 -2.484375 8.25 -2.253906 8.46875 -2.078125 C 8.695312 -1.910156 8.910156 -1.828125 9.109375 -1.828125 C 9.878906 -1.828125 10.613281 -2.414062 11.3125 -3.59375 L 11.84375 -3.203125 C 10.875 -0.910156 9.304688 0.234375 7.140625 0.234375 C 6.078125 0.234375 5.175781 -0.0546875 4.4375 -0.640625 C 3.707031 -1.234375 3.242188 -1.894531 3.046875 -2.625 C 2.921875 -3.03125 2.859375 -4.128906 2.859375 -5.921875 L 2.859375 -14.953125 L 0.6875 -14.953125 L 0.6875 -15.578125 C 2.1875 -16.640625 3.460938 -17.753906 4.515625 -18.921875 C 5.566406 -20.097656 6.488281 -21.40625 7.28125 -22.84375 Z M 7.875 -22.84375 "/></g></g></g><g fill="#000000" fill-opacity="1"><g transform="translate(65.562319, 26.518794)"><g><path d="M 15.40625 -8.96875 L 6.21875 -8.96875 C 6.332031 -6.75 6.925781 -4.992188 8 -3.703125 C 8.820312 -2.710938 9.8125 -2.21875 10.96875 -2.21875 C 11.6875 -2.21875 12.335938 -2.414062 12.921875 -2.8125 C 13.503906 -3.21875 14.128906 -3.9375 14.796875 -4.96875 L 15.40625 -4.578125 C 14.5 -2.734375 13.492188 -1.425781 12.390625 -0.65625 C 11.296875 0.113281 10.03125 0.5 8.59375 0.5 C 6.101562 0.5 4.222656 -0.453125 2.953125 -2.359375 C 1.921875 -3.898438 1.40625 -5.8125 1.40625 -8.09375 C 1.40625 -10.875 2.160156 -13.09375 3.671875 -14.75 C 5.179688 -16.40625 6.953125 -17.234375 8.984375 -17.234375 C 10.671875 -17.234375 12.140625 -16.535156 13.390625 -15.140625 C 14.640625 -13.753906 15.3125 -11.695312 15.40625 -8.96875 Z M 11 -10.15625 C 11 -12.082031 10.894531 -13.398438 10.6875 -14.109375 C 10.476562 -14.828125 10.15625 -15.375 9.71875 -15.75 C 9.46875 -15.957031 9.132812 -16.0625 8.71875 -16.0625 C 8.09375 -16.0625 7.582031 -15.757812 7.1875 -15.15625 C 6.488281 -14.09375 6.140625 -12.632812 6.140625 -10.78125 L 6.140625 -10.15625 Z M 11 -10.15625 "/></g></g></g><g fill="#000000" fill-opacity="1"><g transform="translate(83.66068, 26.518794)"><g><path d="M 7.78125 -24.265625 L 7.78125 -3.46875 C 7.78125 -2.289062 7.914062 -1.535156 8.1875 -1.203125 C 8.46875 -0.878906 9.003906 -0.691406 9.796875 -0.640625 L 9.796875 0 L 0.765625 0 L 0.765625 -0.640625 C 1.503906 -0.671875 2.054688 -0.882812 2.421875 -1.28125 C 2.648438 -1.5625 2.765625 -2.289062 2.765625 -3.46875 L 2.765625 -20.796875 C 2.765625 -21.960938 2.628906 -22.707031 2.359375 -23.03125 C 2.085938 -23.363281 1.554688 -23.550781 0.765625 -23.59375 L 0.765625 -24.265625 Z M 7.78125 -24.265625 "/></g></g></g></g></g></g></svg>